<?xml version="1.0" encoding="utf-8"?>
<!-- Generator: Adobe Illustrator 27.5.0, SVG Export Plug-In . SVG Version: 6.00 Build 0)  -->
<svg version="1.1" id="Layer_1" xmlns="http://www.w3.org/2000/svg" xmlns:xlink="http://www.w3.org/1999/xlink" x="0px" y="0px"
	 viewBox="0 0 300 300" style="enable-background:new 0 0 300 300;" xml:space="preserve">
<style type="text/css">
	.st0{fill:#141642;}
	.st1{fill:#FFFFFF;}
	.st2{fill:#DC3B10;}
	.st3{fill:none;}
</style>
<g>
	<g>
		<path class="st0" d="M269.9,96.7c0.4-1.3-0.1-2.8-1.2-3.6l-110-84.4c-5.1-3.9-12.2-3.9-17.3,0L31.3,93c-1.1,0.9-1.6,2.3-1.2,3.6
			l7.8,27.9l0,0l5,17.8l2.5,9.4H34.9c-2.2,0-3.8,2-3.3,4.1l12.8,63.6c0.3,1.6,1.7,2.7,3.3,2.7h16.1l2.5,9.4l7.5,26.7
			c0.3,1,1,1.8,1.9,2.2l73,33.6c0.9,0.4,1.9,0.4,2.9,0l73.5-33.8c0.6-0.3,1.1-0.8,1.3-1.5l7.6-27.2l2.5-9.4h16.7
			c1.6,0,3-1.2,3.4-2.8l12.2-63.6c0.4-2.1-1.2-4.1-3.4-4.1h-10.6l2.5-9.4L269.9,96.7z"/>
		<path class="st0" d="M150,300c-1.3,0-2.6-0.3-3.8-0.8l-73-33.6c-2.4-1.1-4.2-3.2-4.9-5.8L60.7,233l-1.4-5.2H47.7
			c-4.3,0-8.1-3.1-8.9-7.3L26,156.9c-0.5-2.7,0.1-5.4,1.9-7.5c1.7-2.1,4.3-3.3,7-3.3h3.2l-0.6-2.3L24.7,98.2c-1-3.6,0.2-7.4,3.2-9.7
			l110-84.4c7.1-5.5,17.1-5.5,24.2,0l110,84.4c3,2.3,4.2,6.1,3.2,9.7v0l-12.8,45.6l-0.6,2.3h3.2c2.7,0,5.3,1.2,7,3.3
			c1.7,2.1,2.4,4.8,1.9,7.5l-12.2,63.6c-0.8,4.3-4.6,7.4-8.9,7.4h-12.3l-1.4,5.3l-7.6,27.2c-0.6,2.3-2.2,4.1-4.4,5.1l-73.5,33.8
			C152.6,299.7,151.3,300,150,300z M78.8,255.7l71.2,32.7l71.2-32.7l7.2-25.6l3.5-13.6h19.2l11.3-59.1h-15.2l4.3-16.6L264,96.6
			L155.2,13.1c-3.1-2.3-7.3-2.3-10.4,0L36,96.6l12.5,44.3l4.3,16.5H37.6l11.9,59.1h18.6l3.5,13.6L78.8,255.7z M264.4,95.1
			C264.4,95.1,264.4,95.1,264.4,95.1L264.4,95.1z"/>
	</g>
	<g>
		<g>
			<g>
				<g>
					<path class="st1" d="M257.1,142.3h-4.9l12.3-43.8c0.4-1.3-0.1-2.8-1.2-3.6L158.6,14.6c-5.1-3.9-12.2-3.9-17.3,0L36.7,94.8
						c-1.1,0.9-1.6,2.3-1.2,3.6l12.3,43.8h-4.9L30.1,96.7c-0.4-1.3,0.1-2.8,1.2-3.6l110-84.4c5.1-3.9,12.2-3.9,17.3,0l110,84.4
						c1.1,0.9,1.6,2.3,1.2,3.6L257.1,142.3z"/>
				</g>
			</g>
			<g>
				<g>
					<path class="st1" d="M148.6,294l-73-33.6c-0.9-0.4-1.6-1.2-1.9-2.2l-7.5-26.7h4.9l6.6,23.3c0.3,1,1,1.8,1.9,2.2l69.1,31.8
						c0.9,0.4,1.9,0.4,2.9,0l69.5-32c0.6-0.3,1.1-0.8,1.3-1.5l6.7-23.8h4.9l-7.6,27.2c-0.2,0.7-0.7,1.2-1.3,1.5l0,0L151.4,294
						C150.5,294.4,149.5,294.4,148.6,294z"/>
				</g>
			</g>
			<g>
				<path class="st1" d="M102.9,231.6l1.5,5.2c0.2,0.6,0.6,1.1,1.2,1.4l43.1,19.4c0.8,0.4,1.8,0.4,2.6,0l43.1-19.4
					c0.6-0.3,1.1-0.8,1.2-1.4l1.5-5.2H102.9z"/>
			</g>
			<g>
				<path class="st1" d="M146.6,51.8l-76.8,56.3l9.5,34.2h141.4l9.5-34.2l-76.8-56.3C151.4,50.3,148.6,50.3,146.6,51.8z"/>
			</g>
			<g>
				<g>
					<path class="st1" d="M185.7,197.7v0.9c0,1.7,0.5,2.1,1.3,2.1h4c1.2,0,1.8-0.8,1.8-2.8v-2.6H187
						C186.2,195.3,185.7,196.2,185.7,197.7z"/>
				</g>
				<g>
					<path class="st1" d="M212.9,184.8h-2.7c-1.3,0-2,0.8-2.1,2.6V198c0.1,2,0.8,2.9,2.1,2.9h2.7c1.4,0,2.2-0.9,2.2-3.1V188
						C215.1,185.7,214.4,184.8,212.9,184.8z"/>
				</g>
			</g>
			<g>
				<polygon class="st1" points="65,193.6 72.2,193.6 68.6,178.2 				"/>
			</g>
			<g>
				<g>
					<path class="st1" d="M110.8,187.6c-0.1-1.9-0.8-2.9-2.2-2.9h-2.7c-1.4,0-2.1,0.9-2.1,3.1v9.9c0,2.2,0.7,3.1,2.2,3.1h2.7
						c1.3,0,2-0.8,2.2-2.7h0V187.6z"/>
				</g>
			</g>
			<g>
				<path class="st1" d="M131.9,195.3h-5.8c-0.8,0-1.3,0.9-1.3,2.4v0.9c0,1.7,0.5,2.1,1.3,2.1h4c1.2,0,1.8-0.8,1.8-2.8h0V195.3z"/>
			</g>
			<g>
				<g>
					<path class="st2" d="M246.2,142.3h-16.8l9.4-35.6c0.4-1.3-0.1-2.7-1.2-3.6l-78.9-60.2c-5.1-3.9-12.1-3.9-17.2,0l-78.9,60.2
						c-1.1,0.8-1.6,2.3-1.2,3.6l9.4,35.6H53.8l-11-41.9c-0.4-1.3,0.1-2.7,1.2-3.6l97.4-74.4c5.1-3.9,12.1-3.9,17.2,0L256,96.9
						c1.1,0.8,1.6,2.3,1.2,3.6L246.2,142.3z"/>
				</g>
			</g>
			<g>
				<g>
					<path class="st2" d="M148.6,283.6L84,253.4c-0.9-0.4-1.5-1.2-1.8-2.1l-5.9-19.7H93l2.4,8.1c0.3,0.9,0.9,1.7,1.8,2.1l51.3,24
						c0.9,0.4,2,0.4,2.9,0l51.8-24.2c0.6-0.3,1.1-0.8,1.3-1.5l2.6-8.6h16.7l-6,20.1c-0.2,0.6-0.7,1.2-1.3,1.5l-65,30.4
						C150.5,284,149.5,284,148.6,283.6z"/>
				</g>
			</g>
			<g>
				<g>
					<path class="st2" d="M90.8,129.3h47.1c1.2,0,2.9-0.6,3.7-1.4l13.6-12.6c0.8-0.8,1.5-2.3,1.5-3.4V68.2c0-1.1-0.7-1.4-1.5-0.6
						l-65,60.3C89.3,128.6,89.6,129.3,90.8,129.3z"/>
				</g>
				<g>
					<path class="st0" d="M181.4,129.3h20.2c1.2,0,1.5-0.6,0.6-1.4l-38.4-35.6c-0.9-0.8-1.6-0.5-1.6,0.6v18.7c0,1.1,0.7,2.7,1.6,3.5
						l13.8,12.8C178.5,128.6,180.2,129.3,181.4,129.3z"/>
				</g>
			</g>
			<g>
				<line class="st3" x1="92.6" y1="231.6" x2="101.4" y2="231.6"/>
			</g>
		</g>
		<g>
			<path class="st1" d="M265.2,151.7H34.9c-2.2,0-3.8,2-3.3,4.1l12.8,63.6c0.3,1.6,1.7,2.7,3.3,2.7h205.3c1.6,0,3-1.2,3.4-2.8
				l12.2-63.6C268.9,153.7,267.3,151.7,265.2,151.7z"/>
		</g>
		<g>
			<g>
				<g>
					<path class="st2" d="M179.6,200.9l0.4,5.7h-2.8c-3.8,0-5.7-2.1-5.7-6.4v-32.1l4.7-1.2h0.9v31.6c0,1.7,0.6,2.5,1.7,2.5H179.6
						L179.6,200.9z"/>
				</g>
				<g>
					<path class="st2" d="M194.2,203.7c-1.1,2.2-2.1,2.7-4.7,2.7h-2.8c-3.6,0-5.3-2.1-5.3-6.5V196c0-4,1.8-6.1,5.3-6.1h7v-2.7
						c0-1.7-0.6-2.4-1.8-2.4h-2.8c-1.2,0-1.7,0.7-1.7,2.4v0.5h-5.3v-2.2c0-4.2,1.8-6.3,5.3-6.3h6.1c3.8,0,5.7,2.1,5.7,6.4v20.9h-4.7
						L194.2,203.7z M191.9,200.7c1.2,0,1.8-0.9,1.8-2.8v-2.6h-5.8c-0.8,0-1.3,0.9-1.3,2.5v0.9c0,1.7,0.5,2.1,1.3,2.1H191.9z"/>
				</g>
				<g>
					<path class="st2" d="M209.1,204.1v2.3h-5.7v-38.2l4.7-1.2h1V181c1.2-1.4,2.7-1.9,4.6-1.9h2.3c3.9,0,5.8,2.3,5.8,6.7v13.4
						c0,4.7-2,7.1-6.2,7.1h-1.9C211.2,206.4,209.9,205.7,209.1,204.1z M209.1,198c0.1,2,0.8,2.9,2.1,2.9h2.8c1.4,0,2.2-0.9,2.2-3.1
						v-9.9c0-2.3-0.7-3.3-2.2-3.3h-2.8c-1.3,0-2,0.9-2.1,2.6V198z"/>
				</g>
				<g>
					<path class="st2" d="M231.9,184.4c-0.9,0-1.3,0.6-1.3,2v0.6c0,1.4,0.5,1.7,1.8,2.1l4.8,1.4c4.3,1.2,5.3,2.1,5.3,6.6v3.1
						c0,4.6-2.1,6-6.6,6h-4.3c-5.4,0-6.7-1.7-6.7-6.9V198h5.3v1c0,1.5,0.4,2.1,1.3,2.1h4.4c0.9,0,1.3-0.6,1.3-2v-0.6
						c0-1.4-0.6-1.8-1.7-2.1l-4.8-1.4c-5.1-1.4-5.3-2.8-5.3-7.2v-2.1c0-4.6,1.1-6.5,6.7-6.5h3.4c5.5,0,6.6,1.8,6.6,7.1v1.7h-5.3
						v-1.4c0-1.4-0.4-2.1-1.3-2.1L231.9,184.4L231.9,184.4z"/>
				</g>
			</g>
			<g>
				<path class="st0" d="M111,168.1v13.2c-1-1.7-2-2.2-4.3-2.2h-2.3c-4.2,0-6.1,2.6-6.1,7.6v13c0,4.4,1.8,6.7,5.7,6.7h2.3
					c3,0,4.4-1,5.1-3.1l0.5,3.1h4.7v-39.5h-0.9L111,168.1z M111,198.1c-0.2,1.9-0.9,2.8-2.2,2.8h-2.7c-1.5,0-2.2-0.9-2.2-3.1v-10
					c0-2.2,0.7-3.1,2.1-3.1h2.8c1.4,0,2.1,1,2.2,2.9L111,198.1L111,198.1z"/>
			</g>
			<g>
				<path class="st0" d="M65.4,168.5l-10,37.9h6.5l1.5-6.7h10.1l1.5,6.7h6.4l-9.9-37.9L65.4,168.5z M64.9,193.5l3.6-15.6l3.6,15.6
					H64.9z"/>
			</g>
			<g>
				<path class="st0" d="M95.4,178.5l-4.5,1.6c-1.2,0.4-1.9,1.3-2.4,2.5v-3.2h-0.9l-4.4,1.2v25.7H89v-17.1c0-2,0.6-2.9,2.2-3.4
					l5.1-1.7l-0.4-5.6L95.4,178.5L95.4,178.5z"/>
			</g>
			<g>
				<path class="st0" d="M132.3,179.1h-6.1c-3.6,0-5.3,2.2-5.3,6.3v2.2h5.3v-0.5c0-1.7,0.5-2.4,1.7-2.4h2.8c1.2,0,1.8,0.7,1.8,2.4
					v2.7h-7c-3.6,0-5.3,2.1-5.3,6.1v3.9c0,4.4,1.8,6.5,5.3,6.5h2.8c2.6,0,3.7-0.5,4.7-2.7l0.4,2.7h4.7v-20.9
					C138,181.3,136.1,179.1,132.3,179.1z M132.4,197.8c0,2-0.6,2.8-1.8,2.8h-4c-0.8,0-1.3-0.4-1.3-2.1v-0.9c0-1.5,0.5-2.5,1.3-2.5
					h5.8L132.4,197.8L132.4,197.8z"/>
			</g>
			<g>
				<path class="st0" d="M154.2,179.1h-2.3c-2.4,0-3.7,0.6-4.7,2.5v-2.2h-0.9l-4.4,1.2v25.7h5.7V187c0.1-1.6,0.9-2.6,2.1-2.6h2.3
					c1.5,0,2.1,0.9,2.1,3.1v18.8h5.7v-20.6C160,181.4,158.1,179.1,154.2,179.1z"/>
			</g>
		</g>
	</g>
</g>
</svg>
